<svg xmlns="http://www.w3.org/2000/svg" width="500" height="500" viewBox="0 0 500 500">
<g>
<path d="M 210.20 276.25 C207.19,271.96 205.46,266.36 206.68,264.82 C208.02,263.11 211.92,255.85 227.53,226.00 C234.58,212.52 240.84,201.16 241.43,200.74 C242.02,200.33 246.32,200.10 251.00,200.24 L 259.50 200.50 L 266.50 214.00 C270.36,221.43 275.93,232.00 278.89,237.50 C292.18,262.21 294.00,265.86 294.00,267.84 C294.00,269.00 292.92,271.87 291.60,274.22 C289.47,278.03 288.76,278.53 285.18,278.80 L 281.14 279.11 L 275.98 269.05 L 270.81 259.00 L 239.91 259.00 L 244.21 250.75 L 248.50 242.50 L 254.75 242.20 C258.19,242.04 261.00,241.45 261.00,240.89 C261.00,239.50 250.78,219.99 250.07,220.02 C249.76,220.03 242.75,233.31 234.50,249.51 L 219.50 278.98 L 215.82 278.99 C212.93,279.00 211.72,278.41 210.20,276.25 ZM 241.64 331.48 C230.87,326.03 223.06,321.12 215.76,315.23 C192.31,296.30 179.59,272.25 176.46,240.91 L 175.80 234.31 L 170.75 234.80 C168.34,235.03 166.95,235.28 166.61,234.80 C166.15,234.14 167.57,232.15 170.92,226.99 C172.89,223.96 175.08,220.36 175.80,218.99 C176.51,217.62 177.94,215.38 178.99,214.00 L 180.89 211.50 L 184.66 215.00 C197.60,227.02 201.87,231.39 201.41,232.15 C201.12,232.62 199.33,233.00 197.44,233.00 C194.13,233.00 194.00,233.14 194.00,236.75 C194.00,241.55 196.41,254.93 198.52,261.88 C202.34,274.47 213.25,290.60 224.20,299.85 C229.95,304.71 248.33,317.14 252.00,318.65 C252.67,318.93 253.33,319.21 253.99,319.49 C253.15,319.18 252.49,319.00 252.12,319.00 C251.39,319.00 251.00,321.76 251.00,327.00 C251.00,330.73 251.24,333.87 251.57,334.73 C251.11,334.87 250.75,334.95 250.50,334.95 C249.40,334.96 245.41,333.40 241.64,331.48 ZM 185.25 208.05 L 177.00 200.72 L 177.00 187.28 L 184.75 184.23 C199.87,178.26 218.41,172.44 236.11,168.11 C247.36,165.35 249.35,165.13 254.61,166.04 C255.48,166.19 256.39,166.36 257.34,166.54 C253.44,166.00 250.88,166.17 250.54,167.12 C250.27,167.88 250.38,171.65 250.78,175.49 L 251.50 182.48 L 258.50 184.27 C263.12,185.45 267.32,186.57 271.33,187.70 C268.20,186.86 264.29,185.84 259.29,184.53 L 250.08 182.14 L 239.11 185.01 C220.50,189.90 201.69,195.97 196.00,198.93 C194.93,199.48 194.36,201.97 194.00,207.54 L 193.50 215.37 ZM 270.32 169.55 C276.45,171.13 283.11,173.03 289.67,175.08 C284.48,173.51 278.31,171.76 270.32,169.55 ZM 263.90 324.35 C265.68,325.39 266.75,326.18 266.66,326.50 C266.47,327.19 263.26,329.18 259.72,331.05 C263.21,329.07 266.53,326.98 266.66,326.50 C266.74,326.20 265.59,325.36 263.90,324.35 ZM 305.50 198.85 L 297.00 195.88 C295.24,195.27 293.35,194.61 291.55,193.98 C293.32,194.58 295.13,195.21 297.00,195.87 L 305.50 198.85 ZM 310.42 182.19 C311.57,182.63 312.68,183.07 313.75,183.50 L 323.00 187.21 L 313.85 183.55 C312.67,183.08 311.53,182.63 310.42,182.19 Z" fill="rgba(26,34,99,1)"/>
<path d="M 271.71 318.54 C265.42,315.99 261.00,313.37 261.00,312.20 C261.00,311.79 263.81,309.44 267.25,306.98 C281.22,296.97 293.73,282.17 299.77,268.50 C302.86,261.49 305.67,249.88 306.48,240.75 L 307.17 233.00 L 304.14 233.00 C302.48,233.00 300.82,232.52 300.46,231.93 C300.10,231.35 304.13,226.54 309.42,221.24 C317.69,212.98 319.24,211.82 320.40,213.06 C321.97,214.73 334.00,233.66 334.00,234.46 C334.00,234.76 331.98,235.00 329.50,235.00 C327.02,235.00 325.00,235.23 325.00,235.51 C325.00,237.79 321.75,256.64 320.60,261.01 C317.12,274.24 309.99,288.41 301.86,298.23 C299.46,301.13 297.05,304.07 296.50,304.77 C295.62,305.89 283.00,316.64 278.97,319.71 C277.78,320.62 276.21,320.37 271.71,318.54 ZM 305.79 206.92 L 305.50 198.85 L 297.00 195.87 C283.50,191.13 273.10,187.99 258.50,184.27 L 251.50 182.48 L 250.78 175.49 C250.38,171.65 250.27,167.88 250.54,167.12 C251.12,165.52 257.98,166.14 267.00,168.63 C292.42,175.63 300.49,178.20 313.85,183.55 L 323.00 187.21 L 323.00 194.55 C323.00,200.57 322.67,202.12 321.14,203.19 C320.11,203.91 316.71,206.86 313.58,209.75 C310.45,212.64 307.48,215.00 306.99,215.00 C306.49,215.00 305.95,211.37 305.79,206.92 ZM 237.57 296.43 C235.47,294.33 235.31,278.82 237.37,277.11 C238.13,276.48 239.04,273.77 239.39,271.09 C241.25,257.08 261.00,257.92 261.00,272.01 C261.00,273.73 261.67,275.82 262.50,276.64 C263.61,277.75 264.00,280.46 264.00,287.04 C264.00,297.99 263.99,298.00 249.64,298.00 C241.43,298.00 238.80,297.66 237.57,296.43 ZM 251.00 327.00 C251.00,321.76 251.39,319.00 252.12,319.00 C253.87,319.00 262.39,323.21 265.51,325.38 C265.19,325.75 264.88,326.36 264.70,327.06 C264.56,327.58 264.48,327.96 264.47,328.20 C260.61,330.70 252.91,334.92 251.75,334.97 C251.34,334.99 251.00,331.40 251.00,327.00 ZM 257.00 272.31 C257.00,265.01 250.30,261.61 245.45,266.45 C243.12,268.79 242.12,273.78 243.67,275.33 C244.03,275.70 247.18,276.00 250.67,276.00 L 257.00 276.00 ZM 252.45 287.41 C253.21,283.39 252.59,282.00 250.05,282.00 C247.77,282.00 246.69,284.56 247.97,286.94 C248.50,287.93 248.68,288.99 248.36,289.30 C248.05,289.61 248.08,290.33 248.43,290.89 C249.60,292.79 251.80,290.89 252.45,287.41 Z" fill="rgba(143,219,71,1)"/>
<path d="M 264.70 327.06 C264.99,325.93 265.63,325.00 266.12,325.00 C267.47,325.00 267.17,326.61 265.58,327.93 C264.41,328.90 264.25,328.75 264.70,327.06 Z" fill="rgba(158,217,103,1)"/>
</g>
</svg>